%
M48
M72
T01C0.0236
T02C0.0240
T03C0.0276
T04C0.0320
T05C0.0394
T06C0.0400
T07C0.1102
%
T01
X9900Y9700
X6200Y9900
X9400Y13000
X10300Y17700
X20400Y13000
X21800Y13200
X22200Y20000
X41000Y16800
X41400Y11600
X40900Y8000
T02
X35100Y7600
X35100Y6600
X35100Y5600
X35100Y12600
X35100Y13600
X35100Y14600
X22600Y14600
X10100Y5100
X9100Y5100
X8100Y5100
T03
X19100Y8516
X19100Y10484
X17100Y13616
X17100Y15584
X20216Y23500
X22184Y23500
X46116Y11200
X48084Y11200
X47984Y3600
X46016Y3600
T04
X42100Y3600
X42100Y4600
X42100Y5600
X42100Y6600
X39100Y6600
X39100Y5600
X39100Y4600
X39100Y3600
X30600Y11600
X29600Y11600
X28600Y11600
X27600Y11600
X27600Y14600
X28600Y14600
X29600Y14600
X30600Y14600
X39100Y14600
X39100Y15600
X42100Y15600
X42100Y14600
X42100Y13600
X42100Y12600
X39100Y12600
X39100Y13600
X57200Y19100
X57200Y20100
X59300Y19600
X60300Y19600
X59000Y17300
X58000Y17300
X19100Y6100
X18100Y6100
X17100Y6100
X16100Y6100
X16100Y3100
X17100Y3100
X18100Y3100
X19100Y3100
X14600Y10300
X14600Y11300
X14600Y12300
T05
X24100Y5100
X27100Y5100
X29100Y5100
X31100Y5100
X31100Y2100
X29100Y2100
X27100Y2100
X24100Y2100
T06
X3100Y2600
X3100Y3600
X3100Y4600
X3100Y5600
X3100Y7100
X3100Y8100
X3100Y9100
X3100Y10100
X3100Y11600
X3100Y12600
X3100Y13600
X3100Y14600
X3100Y16100
X3100Y17100
X3100Y18100
X3100Y19100
X4800Y20100
X3100Y21100
X3100Y22100
X3100Y23100
X3100Y24600
X3100Y25600
X15400Y22100
X16400Y22100
X18100Y23000
X27100Y20100
X28100Y20100
X29100Y20100
X30100Y20100
X31100Y20100
X32100Y20100
X33100Y20100
X34100Y20100
X35100Y20100
X36100Y20100
X37100Y20100
X38100Y20100
X39100Y20100
X40100Y20100
X41100Y20100
X42100Y20100
X43100Y20100
X46600Y19600
X46600Y18600
X46600Y17600
X46600Y16600
X46600Y15600
X46600Y14600
X52600Y14600
X52600Y15600
X52600Y16600
X52600Y17600
X52600Y18600
X52600Y19600
X57200Y14500
X58200Y14500
X43100Y26100
X42100Y26100
X41100Y26100
X40100Y26100
X39100Y26100
X38100Y26100
X37100Y26100
X36100Y26100
X35100Y26100
X34100Y26100
X33100Y26100
X32100Y26100
X31100Y26100
X30100Y26100
X29100Y26100
X28100Y26100
X27100Y26100
X23800Y27000
T07
X1100Y1100
X49100Y1100
X49100Y27100
X1100Y27100
M30
