G75*
G70*
%OFA0B0*%
%FSLAX24Y24*%
%IPPOS*%
%LPD*%
%AMOC8*
5,1,8,0,0,1.08239X$1,22.5*
%
%ADD10R,0.0480X0.0880*%
%ADD11R,0.1417X0.0866*%
%ADD12R,0.0394X0.0433*%
%ADD13R,0.0394X0.0551*%
%ADD14R,0.0433X0.0394*%
%ADD15R,0.0315X0.0315*%
%ADD16R,0.0197X0.0315*%
%ADD17R,0.0315X0.0197*%
D10*
X009690Y022380D03*
X010600Y022380D03*
X011510Y022380D03*
D11*
X010600Y024820D03*
D12*
X018365Y021300D03*
X019035Y021300D03*
X011600Y019835D03*
X010600Y019835D03*
X010600Y019165D03*
X011600Y019165D03*
X009635Y020900D03*
X008965Y020900D03*
X008035Y020900D03*
X007365Y020900D03*
X006435Y017700D03*
X005765Y017700D03*
X007765Y014100D03*
X008435Y014100D03*
X010265Y013600D03*
X010935Y013600D03*
X011765Y013600D03*
X012435Y013600D03*
X008435Y012600D03*
X007765Y012600D03*
X016100Y008435D03*
X016100Y007765D03*
X020265Y005700D03*
X020935Y005700D03*
X021100Y006565D03*
X021100Y007235D03*
X022265Y009600D03*
X022935Y009600D03*
X023600Y010765D03*
X023600Y011435D03*
X027965Y009100D03*
X028635Y009100D03*
X029565Y009100D03*
X030235Y009100D03*
X038100Y008435D03*
X038100Y007765D03*
X040265Y008600D03*
X040935Y008600D03*
X054765Y016100D03*
X055435Y016100D03*
X055435Y017600D03*
X054765Y017600D03*
X054765Y019100D03*
X055435Y019100D03*
X040935Y017600D03*
X040265Y017600D03*
X038100Y017435D03*
X038100Y016765D03*
X030435Y017100D03*
X029765Y017100D03*
X028435Y017100D03*
X027765Y017100D03*
X023600Y015435D03*
X023600Y014765D03*
X022935Y016600D03*
X022265Y016600D03*
X020435Y016900D03*
X019765Y016900D03*
X008435Y007100D03*
X007765Y007100D03*
X020600Y003435D03*
X020600Y002765D03*
D13*
X013500Y022867D03*
X013126Y023733D03*
X013874Y023733D03*
D14*
X019900Y020635D03*
X019900Y019965D03*
X018935Y016900D03*
X018265Y016900D03*
X014600Y016435D03*
X014600Y015765D03*
X014600Y014935D03*
X014600Y014265D03*
X016565Y012000D03*
X017235Y012000D03*
X012435Y011600D03*
X011765Y011600D03*
X010935Y011600D03*
X010265Y011600D03*
X006935Y011100D03*
X006265Y011100D03*
X005100Y009935D03*
X005100Y009265D03*
X006265Y007100D03*
X006935Y007100D03*
X014100Y004435D03*
X014100Y003765D03*
X014265Y002100D03*
X014935Y002100D03*
X032265Y009100D03*
X032935Y009100D03*
X039265Y011100D03*
X039935Y011100D03*
X042100Y010765D03*
X042100Y011435D03*
X043265Y010600D03*
X043935Y010600D03*
X043765Y014600D03*
X044435Y014600D03*
X033435Y017100D03*
X032765Y017100D03*
X025100Y015435D03*
X025100Y014765D03*
X025100Y011435D03*
X025100Y010765D03*
X007600Y016965D03*
X007600Y017635D03*
X006935Y014100D03*
X006265Y014100D03*
X006265Y012600D03*
X006935Y012600D03*
X039265Y002100D03*
X039935Y002100D03*
X042100Y001765D03*
X042100Y002435D03*
X043265Y001600D03*
X043935Y001600D03*
X043765Y005600D03*
X044435Y005600D03*
X059700Y014465D03*
X059700Y015135D03*
D15*
X014600Y017305D03*
X014600Y017895D03*
D16*
X036600Y013494D03*
X037600Y013494D03*
X037600Y012706D03*
X036600Y012706D03*
X036600Y006494D03*
X037600Y006494D03*
X037600Y005706D03*
X036600Y005706D03*
D17*
X008206Y002600D03*
X008994Y002600D03*
X008994Y003600D03*
X008206Y003600D03*
M02*
