G75*
G70*
%OFA0B0*%
%FSLAX24Y24*%
%IPPOS*%
%LPD*%
%AMOC8*
5,1,8,0,0,1.08239X$1,22.5*
%
%ADD10C,0.0000*%
%ADD11R,0.0740X0.0740*%
%ADD12C,0.0740*%
%ADD13R,0.0480X0.0880*%
%ADD14R,0.1417X0.0866*%
%ADD15R,0.0394X0.0433*%
%ADD16R,0.0394X0.0551*%
%ADD17R,0.0433X0.0394*%
%ADD18R,0.0315X0.0315*%
%ADD19C,0.0650*%
%ADD20R,0.0650X0.0650*%
%ADD21OC8,0.0680*%
%ADD22C,0.0440*%
%ADD23R,0.0197X0.0315*%
%ADD24R,0.0315X0.0197*%
%ADD25C,0.0594*%
%ADD26C,0.0100*%
%ADD27C,0.0160*%
%ADD28C,0.0396*%
%ADD29C,0.0400*%
D10*
X000100Y000100D02*
X000100Y027970D01*
X061992Y027970D01*
X061992Y000100D01*
X000100Y000100D01*
X000549Y001100D02*
X000551Y001147D01*
X000557Y001193D01*
X000567Y001239D01*
X000580Y001284D01*
X000598Y001327D01*
X000619Y001369D01*
X000643Y001409D01*
X000671Y001446D01*
X000702Y001481D01*
X000736Y001514D01*
X000772Y001543D01*
X000811Y001569D01*
X000852Y001592D01*
X000895Y001611D01*
X000939Y001627D01*
X000984Y001639D01*
X001030Y001647D01*
X001077Y001651D01*
X001123Y001651D01*
X001170Y001647D01*
X001216Y001639D01*
X001261Y001627D01*
X001305Y001611D01*
X001348Y001592D01*
X001389Y001569D01*
X001428Y001543D01*
X001464Y001514D01*
X001498Y001481D01*
X001529Y001446D01*
X001557Y001409D01*
X001581Y001369D01*
X001602Y001327D01*
X001620Y001284D01*
X001633Y001239D01*
X001643Y001193D01*
X001649Y001147D01*
X001651Y001100D01*
X001649Y001053D01*
X001643Y001007D01*
X001633Y000961D01*
X001620Y000916D01*
X001602Y000873D01*
X001581Y000831D01*
X001557Y000791D01*
X001529Y000754D01*
X001498Y000719D01*
X001464Y000686D01*
X001428Y000657D01*
X001389Y000631D01*
X001348Y000608D01*
X001305Y000589D01*
X001261Y000573D01*
X001216Y000561D01*
X001170Y000553D01*
X001123Y000549D01*
X001077Y000549D01*
X001030Y000553D01*
X000984Y000561D01*
X000939Y000573D01*
X000895Y000589D01*
X000852Y000608D01*
X000811Y000631D01*
X000772Y000657D01*
X000736Y000686D01*
X000702Y000719D01*
X000671Y000754D01*
X000643Y000791D01*
X000619Y000831D01*
X000598Y000873D01*
X000580Y000916D01*
X000567Y000961D01*
X000557Y001007D01*
X000551Y001053D01*
X000549Y001100D01*
X048549Y001100D02*
X048551Y001147D01*
X048557Y001193D01*
X048567Y001239D01*
X048580Y001284D01*
X048598Y001327D01*
X048619Y001369D01*
X048643Y001409D01*
X048671Y001446D01*
X048702Y001481D01*
X048736Y001514D01*
X048772Y001543D01*
X048811Y001569D01*
X048852Y001592D01*
X048895Y001611D01*
X048939Y001627D01*
X048984Y001639D01*
X049030Y001647D01*
X049077Y001651D01*
X049123Y001651D01*
X049170Y001647D01*
X049216Y001639D01*
X049261Y001627D01*
X049305Y001611D01*
X049348Y001592D01*
X049389Y001569D01*
X049428Y001543D01*
X049464Y001514D01*
X049498Y001481D01*
X049529Y001446D01*
X049557Y001409D01*
X049581Y001369D01*
X049602Y001327D01*
X049620Y001284D01*
X049633Y001239D01*
X049643Y001193D01*
X049649Y001147D01*
X049651Y001100D01*
X049649Y001053D01*
X049643Y001007D01*
X049633Y000961D01*
X049620Y000916D01*
X049602Y000873D01*
X049581Y000831D01*
X049557Y000791D01*
X049529Y000754D01*
X049498Y000719D01*
X049464Y000686D01*
X049428Y000657D01*
X049389Y000631D01*
X049348Y000608D01*
X049305Y000589D01*
X049261Y000573D01*
X049216Y000561D01*
X049170Y000553D01*
X049123Y000549D01*
X049077Y000549D01*
X049030Y000553D01*
X048984Y000561D01*
X048939Y000573D01*
X048895Y000589D01*
X048852Y000608D01*
X048811Y000631D01*
X048772Y000657D01*
X048736Y000686D01*
X048702Y000719D01*
X048671Y000754D01*
X048643Y000791D01*
X048619Y000831D01*
X048598Y000873D01*
X048580Y000916D01*
X048567Y000961D01*
X048557Y001007D01*
X048551Y001053D01*
X048549Y001100D01*
X048549Y027100D02*
X048551Y027147D01*
X048557Y027193D01*
X048567Y027239D01*
X048580Y027284D01*
X048598Y027327D01*
X048619Y027369D01*
X048643Y027409D01*
X048671Y027446D01*
X048702Y027481D01*
X048736Y027514D01*
X048772Y027543D01*
X048811Y027569D01*
X048852Y027592D01*
X048895Y027611D01*
X048939Y027627D01*
X048984Y027639D01*
X049030Y027647D01*
X049077Y027651D01*
X049123Y027651D01*
X049170Y027647D01*
X049216Y027639D01*
X049261Y027627D01*
X049305Y027611D01*
X049348Y027592D01*
X049389Y027569D01*
X049428Y027543D01*
X049464Y027514D01*
X049498Y027481D01*
X049529Y027446D01*
X049557Y027409D01*
X049581Y027369D01*
X049602Y027327D01*
X049620Y027284D01*
X049633Y027239D01*
X049643Y027193D01*
X049649Y027147D01*
X049651Y027100D01*
X049649Y027053D01*
X049643Y027007D01*
X049633Y026961D01*
X049620Y026916D01*
X049602Y026873D01*
X049581Y026831D01*
X049557Y026791D01*
X049529Y026754D01*
X049498Y026719D01*
X049464Y026686D01*
X049428Y026657D01*
X049389Y026631D01*
X049348Y026608D01*
X049305Y026589D01*
X049261Y026573D01*
X049216Y026561D01*
X049170Y026553D01*
X049123Y026549D01*
X049077Y026549D01*
X049030Y026553D01*
X048984Y026561D01*
X048939Y026573D01*
X048895Y026589D01*
X048852Y026608D01*
X048811Y026631D01*
X048772Y026657D01*
X048736Y026686D01*
X048702Y026719D01*
X048671Y026754D01*
X048643Y026791D01*
X048619Y026831D01*
X048598Y026873D01*
X048580Y026916D01*
X048567Y026961D01*
X048557Y027007D01*
X048551Y027053D01*
X048549Y027100D01*
X000549Y027100D02*
X000551Y027147D01*
X000557Y027193D01*
X000567Y027239D01*
X000580Y027284D01*
X000598Y027327D01*
X000619Y027369D01*
X000643Y027409D01*
X000671Y027446D01*
X000702Y027481D01*
X000736Y027514D01*
X000772Y027543D01*
X000811Y027569D01*
X000852Y027592D01*
X000895Y027611D01*
X000939Y027627D01*
X000984Y027639D01*
X001030Y027647D01*
X001077Y027651D01*
X001123Y027651D01*
X001170Y027647D01*
X001216Y027639D01*
X001261Y027627D01*
X001305Y027611D01*
X001348Y027592D01*
X001389Y027569D01*
X001428Y027543D01*
X001464Y027514D01*
X001498Y027481D01*
X001529Y027446D01*
X001557Y027409D01*
X001581Y027369D01*
X001602Y027327D01*
X001620Y027284D01*
X001633Y027239D01*
X001643Y027193D01*
X001649Y027147D01*
X001651Y027100D01*
X001649Y027053D01*
X001643Y027007D01*
X001633Y026961D01*
X001620Y026916D01*
X001602Y026873D01*
X001581Y026831D01*
X001557Y026791D01*
X001529Y026754D01*
X001498Y026719D01*
X001464Y026686D01*
X001428Y026657D01*
X001389Y026631D01*
X001348Y026608D01*
X001305Y026589D01*
X001261Y026573D01*
X001216Y026561D01*
X001170Y026553D01*
X001123Y026549D01*
X001077Y026549D01*
X001030Y026553D01*
X000984Y026561D01*
X000939Y026573D01*
X000895Y026589D01*
X000852Y026608D01*
X000811Y026631D01*
X000772Y026657D01*
X000736Y026686D01*
X000702Y026719D01*
X000671Y026754D01*
X000643Y026791D01*
X000619Y026831D01*
X000598Y026873D01*
X000580Y026916D01*
X000567Y026961D01*
X000557Y027007D01*
X000551Y027053D01*
X000549Y027100D01*
D11*
X003100Y024600D03*
X003100Y021100D03*
X003100Y016100D03*
X003100Y011600D03*
X003100Y007100D03*
X003100Y002600D03*
X015400Y022100D03*
X046600Y019600D03*
X052600Y019600D03*
X057200Y014500D03*
D12*
X058200Y014500D03*
X052600Y014600D03*
X052600Y015600D03*
X052600Y016600D03*
X052600Y017600D03*
X052600Y018600D03*
X057200Y019100D03*
X057200Y020100D03*
X059300Y019600D03*
X060300Y019600D03*
X059000Y017300D03*
X058000Y017300D03*
X046600Y017600D03*
X046600Y016600D03*
X046600Y015600D03*
X046600Y014600D03*
X046600Y018600D03*
X043100Y020100D03*
X042100Y020100D03*
X041100Y020100D03*
X040100Y020100D03*
X039100Y020100D03*
X038100Y020100D03*
X037100Y020100D03*
X036100Y020100D03*
X035100Y020100D03*
X034100Y020100D03*
X033100Y020100D03*
X032100Y020100D03*
X031100Y020100D03*
X030100Y020100D03*
X029100Y020100D03*
X028100Y020100D03*
X027100Y020100D03*
X018100Y023000D03*
X016400Y022100D03*
X027100Y026100D03*
X028100Y026100D03*
X029100Y026100D03*
X030100Y026100D03*
X031100Y026100D03*
X032100Y026100D03*
X033100Y026100D03*
X034100Y026100D03*
X035100Y026100D03*
X036100Y026100D03*
X037100Y026100D03*
X038100Y026100D03*
X039100Y026100D03*
X040100Y026100D03*
X041100Y026100D03*
X042100Y026100D03*
X043100Y026100D03*
X023800Y027000D03*
X004800Y020100D03*
X003100Y019100D03*
X003100Y018100D03*
X003100Y017100D03*
X003100Y014600D03*
X003100Y013600D03*
X003100Y012600D03*
X003100Y010100D03*
X003100Y009100D03*
X003100Y008100D03*
X003100Y005600D03*
X003100Y004600D03*
X003100Y003600D03*
X014600Y010300D03*
X014600Y011300D03*
X014600Y012300D03*
X003100Y022100D03*
X003100Y023100D03*
X003100Y025600D03*
D13*
X009690Y022380D03*
X010600Y022380D03*
X011510Y022380D03*
D14*
X010600Y024820D03*
D15*
X018365Y021300D03*
X019035Y021300D03*
X011600Y019835D03*
X010600Y019835D03*
X010600Y019165D03*
X011600Y019165D03*
X009635Y020900D03*
X008965Y020900D03*
X008035Y020900D03*
X007365Y020900D03*
X006435Y017700D03*
X005765Y017700D03*
X007765Y014100D03*
X008435Y014100D03*
X010265Y013600D03*
X010935Y013600D03*
X011765Y013600D03*
X012435Y013600D03*
X008435Y012600D03*
X007765Y012600D03*
X016100Y008435D03*
X016100Y007765D03*
X020265Y005700D03*
X020935Y005700D03*
X021100Y006565D03*
X021100Y007235D03*
X022265Y009600D03*
X022935Y009600D03*
X023600Y010765D03*
X023600Y011435D03*
X027965Y009100D03*
X028635Y009100D03*
X029565Y009100D03*
X030235Y009100D03*
X038100Y008435D03*
X038100Y007765D03*
X040265Y008600D03*
X040935Y008600D03*
X054765Y016100D03*
X055435Y016100D03*
X055435Y017600D03*
X054765Y017600D03*
X054765Y019100D03*
X055435Y019100D03*
X040935Y017600D03*
X040265Y017600D03*
X038100Y017435D03*
X038100Y016765D03*
X030435Y017100D03*
X029765Y017100D03*
X028435Y017100D03*
X027765Y017100D03*
X023600Y015435D03*
X023600Y014765D03*
X022935Y016600D03*
X022265Y016600D03*
X020435Y016900D03*
X019765Y016900D03*
X008435Y007100D03*
X007765Y007100D03*
X020600Y003435D03*
X020600Y002765D03*
D16*
X013500Y022867D03*
X013126Y023733D03*
X013874Y023733D03*
D17*
X019900Y020635D03*
X019900Y019965D03*
X018935Y016900D03*
X018265Y016900D03*
X014600Y016435D03*
X014600Y015765D03*
X014600Y014935D03*
X014600Y014265D03*
X016565Y012000D03*
X017235Y012000D03*
X012435Y011600D03*
X011765Y011600D03*
X010935Y011600D03*
X010265Y011600D03*
X006935Y011100D03*
X006265Y011100D03*
X005100Y009935D03*
X005100Y009265D03*
X006265Y007100D03*
X006935Y007100D03*
X014100Y004435D03*
X014100Y003765D03*
X014265Y002100D03*
X014935Y002100D03*
X032265Y009100D03*
X032935Y009100D03*
X039265Y011100D03*
X039935Y011100D03*
X042100Y010765D03*
X042100Y011435D03*
X043265Y010600D03*
X043935Y010600D03*
X043765Y014600D03*
X044435Y014600D03*
X033435Y017100D03*
X032765Y017100D03*
X025100Y015435D03*
X025100Y014765D03*
X025100Y011435D03*
X025100Y010765D03*
X007600Y016965D03*
X007600Y017635D03*
X006935Y014100D03*
X006265Y014100D03*
X006265Y012600D03*
X006935Y012600D03*
X039265Y002100D03*
X039935Y002100D03*
X042100Y001765D03*
X042100Y002435D03*
X043265Y001600D03*
X043935Y001600D03*
X043765Y005600D03*
X044435Y005600D03*
X059700Y014465D03*
X059700Y015135D03*
D18*
X014600Y017305D03*
X014600Y017895D03*
D19*
X017100Y013616D03*
X019100Y010484D03*
X022184Y023500D03*
X048084Y011200D03*
X047984Y003600D03*
D20*
X046016Y003600D03*
X046116Y011200D03*
X019100Y008516D03*
X017100Y015584D03*
X020216Y023500D03*
D21*
X039100Y015600D03*
X039100Y014600D03*
X039100Y013600D03*
X039100Y012600D03*
X042100Y012600D03*
X042100Y013600D03*
X042100Y014600D03*
X042100Y015600D03*
X030600Y014600D03*
X029600Y014600D03*
X028600Y014600D03*
X027600Y014600D03*
X027600Y011600D03*
X028600Y011600D03*
X029600Y011600D03*
X030600Y011600D03*
X039100Y006600D03*
X039100Y005600D03*
X039100Y004600D03*
X039100Y003600D03*
X042100Y003600D03*
X042100Y004600D03*
X042100Y005600D03*
X042100Y006600D03*
X019100Y006100D03*
X018100Y006100D03*
X017100Y006100D03*
X016100Y006100D03*
X016100Y003100D03*
X017100Y003100D03*
X018100Y003100D03*
X019100Y003100D03*
D22*
X010100Y005100D03*
X009100Y005100D03*
X008100Y005100D03*
X035100Y005600D03*
X035100Y006600D03*
X035100Y007600D03*
X035100Y012600D03*
X035100Y013600D03*
X035100Y014600D03*
D23*
X036600Y013494D03*
X037600Y013494D03*
X037600Y012706D03*
X036600Y012706D03*
X036600Y006494D03*
X037600Y006494D03*
X037600Y005706D03*
X036600Y005706D03*
D24*
X008994Y003600D03*
X008206Y003600D03*
X008206Y002600D03*
X008994Y002600D03*
D25*
X024100Y002100D03*
X027100Y002100D03*
X029100Y002100D03*
X031100Y002100D03*
X031100Y005100D03*
X029100Y005100D03*
X027100Y005100D03*
X024100Y005100D03*
D26*
X024100Y002765D01*
X020600Y002765D01*
X019435Y002765D01*
X019100Y003100D01*
X019100Y001300D01*
X008200Y001300D01*
X008200Y002600D01*
X008206Y002600D01*
X008206Y003600D01*
X008206Y004994D01*
X008100Y005100D01*
X007600Y005600D01*
X003100Y005600D01*
X002400Y005600D01*
X002400Y009100D01*
X003100Y009100D01*
X004935Y009100D01*
X005100Y009265D01*
X005100Y009935D02*
X004935Y010100D01*
X003100Y010100D01*
X002400Y009100D02*
X002400Y014600D01*
X003100Y014600D01*
X002400Y014600D02*
X002400Y019100D01*
X003100Y019100D01*
X005200Y019100D01*
X005200Y016965D01*
X007600Y016965D01*
X007600Y017635D02*
X007600Y017700D01*
X010300Y017700D01*
X012400Y018300D02*
X012400Y019835D01*
X011600Y019835D01*
X012400Y019835D02*
X012400Y022300D01*
X011510Y022300D01*
X011510Y022380D01*
X011500Y022380D01*
X010600Y022380D02*
X010600Y023300D01*
X013874Y023300D01*
X013874Y023733D01*
X013126Y023733D02*
X005600Y023733D01*
X005600Y024600D01*
X003100Y024600D01*
X004400Y024900D02*
X004400Y027520D01*
X019100Y027520D01*
X019100Y024400D01*
X011459Y024400D01*
X011459Y024770D01*
X010650Y024770D01*
X010650Y024870D01*
X011459Y024870D01*
X011459Y025273D01*
X011448Y025311D01*
X011429Y025345D01*
X011401Y025373D01*
X011367Y025393D01*
X011328Y025403D01*
X010650Y025403D01*
X010650Y024870D01*
X010550Y024870D01*
X010550Y024770D01*
X009741Y024770D01*
X009741Y024400D01*
X005900Y024400D01*
X005900Y024900D01*
X004400Y024900D01*
X004400Y024922D02*
X009741Y024922D01*
X009741Y024870D02*
X010550Y024870D01*
X010550Y025403D01*
X009872Y025403D01*
X009833Y025393D01*
X009799Y025373D01*
X009771Y025345D01*
X009752Y025311D01*
X009741Y025273D01*
X009741Y024870D01*
X009741Y024725D02*
X005900Y024725D01*
X005900Y024627D02*
X009741Y024627D01*
X009741Y024528D02*
X005900Y024528D01*
X005900Y024430D02*
X009741Y024430D01*
X010550Y024824D02*
X005900Y024824D01*
X004400Y025021D02*
X009741Y025021D01*
X009741Y025119D02*
X004400Y025119D01*
X004400Y025218D02*
X009741Y025218D01*
X009754Y025316D02*
X004400Y025316D01*
X004400Y025415D02*
X019100Y025415D01*
X019100Y025513D02*
X004400Y025513D01*
X004400Y025612D02*
X019100Y025612D01*
X019100Y025710D02*
X004400Y025710D01*
X004400Y025809D02*
X019100Y025809D01*
X019100Y025907D02*
X004400Y025907D01*
X004400Y026006D02*
X019100Y026006D01*
X019100Y026104D02*
X004400Y026104D01*
X004400Y026203D02*
X019100Y026203D01*
X019100Y026301D02*
X004400Y026301D01*
X004400Y026400D02*
X019100Y026400D01*
X019100Y026498D02*
X004400Y026498D01*
X004400Y026597D02*
X019100Y026597D01*
X019100Y026695D02*
X004400Y026695D01*
X004400Y026794D02*
X019100Y026794D01*
X019100Y026892D02*
X004400Y026892D01*
X004400Y026991D02*
X019100Y026991D01*
X019100Y027089D02*
X004400Y027089D01*
X004400Y027188D02*
X019100Y027188D01*
X019100Y027286D02*
X004400Y027286D01*
X004400Y027385D02*
X019100Y027385D01*
X019100Y027483D02*
X004400Y027483D01*
X003100Y025600D02*
X002400Y025600D01*
X002400Y023100D01*
X003100Y023100D01*
X002400Y023100D02*
X002400Y022100D01*
X003100Y022100D01*
X006700Y022100D01*
X006700Y020900D01*
X007365Y020900D01*
X006700Y020900D02*
X006700Y019165D01*
X010600Y019165D01*
X011600Y019165D01*
X010600Y019835D02*
X010600Y020900D01*
X009635Y020900D01*
X009000Y020900D02*
X009000Y022300D01*
X009690Y022300D01*
X009690Y022380D01*
X010600Y022380D02*
X010600Y020900D01*
X009000Y020900D02*
X008965Y020900D01*
X008035Y020900D01*
X005765Y021100D02*
X005765Y018300D01*
X012400Y018300D01*
X014600Y017895D02*
X016400Y017895D01*
X021700Y017895D01*
X021700Y016600D01*
X022265Y016600D01*
X021800Y016600D01*
X021800Y013200D01*
X021800Y009600D01*
X022265Y009600D01*
X021800Y009600D02*
X021800Y004800D01*
X020600Y004800D01*
X018100Y004800D01*
X018100Y006100D01*
X019100Y006100D02*
X019100Y005700D01*
X020265Y005700D01*
X020935Y005700D02*
X021100Y005700D01*
X021100Y006565D01*
X021100Y007235D02*
X021100Y009200D01*
X016100Y009200D01*
X016100Y008435D01*
X014600Y008435D01*
X014600Y010300D01*
X015800Y011500D01*
X015800Y013600D01*
X015816Y013616D01*
X017100Y013616D01*
X016565Y012900D02*
X017700Y012900D01*
X017700Y014600D01*
X015600Y014600D01*
X015300Y014300D01*
X014635Y014300D01*
X014600Y014265D01*
X013935Y013600D01*
X012435Y013600D01*
X011800Y013565D02*
X011765Y013600D01*
X011800Y013565D02*
X011800Y012900D01*
X012435Y012265D01*
X012435Y011600D01*
X012435Y011300D01*
X014600Y011300D01*
X014600Y012300D02*
X014600Y014265D01*
X014600Y014935D02*
X017100Y014935D01*
X017100Y015584D01*
X014600Y015765D02*
X014600Y014935D01*
X010935Y014935D01*
X010935Y013600D01*
X010265Y013600D02*
X010265Y016100D01*
X003100Y016100D01*
X005765Y017700D02*
X005765Y018300D01*
X006435Y017700D02*
X007600Y017700D01*
X004800Y020100D02*
X004800Y021100D01*
X005765Y021100D01*
X004800Y021100D02*
X003100Y021100D01*
X002400Y022100D02*
X002400Y019100D01*
X004600Y014100D02*
X006265Y014100D01*
X006935Y014100D02*
X007765Y014100D01*
X008435Y014100D02*
X008435Y013965D01*
X009400Y013000D01*
X008435Y012600D02*
X008435Y009700D01*
X009900Y009700D01*
X008435Y009700D02*
X008435Y007100D01*
X007765Y007100D02*
X006935Y007100D01*
X006265Y007100D02*
X003100Y007100D01*
X008100Y006200D02*
X010100Y006200D01*
X010100Y005100D01*
X009100Y005100D02*
X008994Y004994D01*
X008994Y003600D01*
X008994Y002600D01*
X009000Y002600D01*
X009000Y001500D01*
X018100Y001500D01*
X018100Y003100D01*
X017600Y004435D02*
X017600Y006700D01*
X019100Y006700D01*
X019100Y008516D01*
X017100Y006765D02*
X016100Y007765D01*
X017100Y006765D02*
X017100Y006100D01*
X019100Y006100D02*
X019100Y006700D01*
X020600Y004800D02*
X020600Y003435D01*
X017600Y004435D02*
X014100Y004435D01*
X014100Y003765D02*
X014100Y002100D01*
X014265Y002100D01*
X014935Y002100D02*
X016100Y002100D01*
X016100Y003100D01*
X008100Y006200D02*
X008100Y011100D01*
X006935Y011100D01*
X006265Y011100D02*
X005600Y011100D01*
X005600Y011600D01*
X005600Y012600D01*
X006265Y012600D01*
X006935Y012600D02*
X007765Y012600D01*
X005600Y011600D02*
X003100Y011600D01*
X003100Y012600D02*
X004600Y012600D01*
X004600Y014100D01*
X010265Y013600D02*
X010265Y011600D01*
X010935Y011600D02*
X011765Y011600D01*
X016565Y012000D02*
X016565Y012900D01*
X017235Y012000D02*
X018265Y012000D01*
X018265Y016900D01*
X018935Y016900D02*
X019765Y016900D01*
X020435Y016900D02*
X020435Y013035D01*
X020400Y013000D01*
X022600Y014600D02*
X022600Y009100D01*
X024600Y007100D01*
X024600Y002600D01*
X024100Y002100D01*
X035100Y005600D02*
X036600Y005600D01*
X036600Y005706D01*
X037600Y005706D01*
X039100Y005600D02*
X039700Y005600D01*
X039700Y003600D01*
X039100Y003600D01*
X039100Y002100D01*
X039265Y002100D02*
X039265Y000800D01*
X043900Y000800D01*
X043900Y001600D01*
X043935Y001600D02*
X044435Y001600D01*
X044435Y005600D01*
X044435Y010600D01*
X044435Y014100D01*
X039700Y014100D01*
X039700Y014600D01*
X039100Y014600D01*
X039700Y014100D02*
X039700Y012706D01*
X039100Y012706D01*
X039100Y012600D01*
X039100Y011100D01*
X039935Y011100D02*
X041400Y011100D01*
X041400Y004600D01*
X042100Y004600D01*
X041400Y004600D02*
X041400Y002100D01*
X039935Y002100D01*
X042100Y002435D02*
X042100Y003600D01*
X039100Y004600D02*
X038500Y004600D01*
X038500Y006494D01*
X037600Y006494D01*
X036600Y006494D01*
X036600Y006600D01*
X035100Y006600D01*
X038100Y007765D02*
X039100Y007765D01*
X039100Y006600D01*
X040900Y008000D02*
X040935Y008000D01*
X040935Y008600D01*
X040265Y008600D02*
X038100Y008600D01*
X038100Y008435D01*
X035100Y009100D02*
X032935Y009100D01*
X032265Y009100D02*
X031800Y009100D01*
X031800Y008200D01*
X029565Y008200D01*
X029565Y009100D01*
X028635Y009100D01*
X027965Y009100D02*
X027965Y010965D01*
X028600Y011600D01*
X029600Y011600D02*
X029600Y009100D01*
X029565Y009100D01*
X030100Y009100D02*
X030235Y009100D01*
X033735Y012600D01*
X035100Y012600D01*
X035100Y012706D01*
X036600Y012706D01*
X037600Y012706D01*
X039100Y012706D01*
X039100Y013494D02*
X037600Y013494D01*
X036600Y013494D01*
X035100Y013494D01*
X035100Y013600D01*
X035100Y014600D02*
X035100Y017100D01*
X033435Y017100D01*
X032765Y017100D02*
X030600Y017100D01*
X030435Y017100D02*
X030400Y017100D01*
X030400Y017800D01*
X028435Y017800D01*
X028435Y017100D01*
X027765Y017100D02*
X025300Y017100D01*
X025300Y020000D01*
X022200Y020000D01*
X019900Y020000D01*
X019900Y020635D02*
X019900Y020800D01*
X039100Y020800D01*
X039100Y020100D01*
X038100Y017600D02*
X040265Y017600D01*
X040935Y017600D02*
X041000Y017600D01*
X041000Y016800D01*
X039100Y015600D02*
X038100Y015600D01*
X038100Y016765D01*
X038100Y017435D02*
X038100Y017600D01*
X042100Y014600D02*
X043765Y014600D01*
X044435Y014600D02*
X045100Y014600D01*
X045100Y013900D01*
X047500Y013900D01*
X047500Y019600D01*
X046600Y019600D01*
X044100Y021100D02*
X032100Y021100D01*
X032100Y026100D01*
X020200Y023484D02*
X020200Y022100D01*
X018365Y022100D01*
X018365Y021300D01*
X019035Y021300D02*
X019900Y021300D01*
X019900Y020635D01*
X018365Y022100D02*
X018100Y022100D01*
X018100Y023000D01*
X018100Y022100D02*
X016400Y022100D01*
X016400Y017895D01*
X014600Y017305D02*
X014600Y016435D01*
X022935Y016600D02*
X022935Y015435D01*
X023600Y015435D01*
X025100Y015435D01*
X026100Y015435D01*
X026100Y013900D01*
X028600Y013900D01*
X028600Y014600D01*
X029600Y014600D02*
X029600Y016935D01*
X029765Y017100D01*
X030435Y017100D02*
X030600Y016935D01*
X030600Y014600D01*
X029100Y015200D02*
X029100Y013600D01*
X030100Y012600D01*
X030100Y009100D01*
X027600Y010765D02*
X027600Y011600D01*
X027600Y010765D02*
X025100Y010765D01*
X023600Y010765D01*
X022935Y010765D01*
X022935Y009600D01*
X023600Y011400D02*
X023600Y011435D01*
X025100Y011435D01*
X025100Y013200D01*
X029100Y013200D01*
X029100Y013600D01*
X027600Y014600D02*
X028200Y015200D01*
X029100Y015200D01*
X027600Y014600D02*
X027600Y016935D01*
X027765Y017100D01*
X025100Y014765D02*
X023600Y014765D01*
X025100Y014765D02*
X025100Y013200D01*
X039100Y013494D02*
X039100Y013600D01*
X041400Y013600D02*
X042100Y013600D01*
X041400Y013600D02*
X041400Y011600D01*
X041400Y011100D01*
X042100Y010765D02*
X042100Y010600D01*
X043265Y010600D01*
X043935Y010600D02*
X044435Y010600D01*
X042100Y011435D02*
X042100Y012600D01*
X044435Y014100D02*
X044435Y014600D01*
X046600Y014600D02*
X044100Y017100D01*
X044100Y021100D01*
X052600Y018600D02*
X054265Y018600D01*
X054765Y019100D01*
X055435Y019100D02*
X057200Y019100D01*
X057300Y017600D02*
X059300Y019600D01*
X057300Y017600D02*
X055435Y017600D01*
X054765Y017600D02*
X052600Y017600D01*
X052600Y016600D02*
X054265Y016600D01*
X054765Y016100D01*
X055435Y016100D02*
X058000Y016100D01*
X058000Y017300D01*
X059000Y017300D02*
X059700Y016600D01*
X059700Y015135D01*
X059700Y014465D02*
X058200Y014465D01*
X058200Y014500D01*
X043765Y005600D02*
X042100Y005600D01*
X042100Y001600D02*
X043265Y001600D01*
X006200Y009900D02*
X006200Y009935D01*
X005100Y009935D01*
X013500Y022100D02*
X015400Y022100D01*
X013500Y022100D02*
X013500Y022867D01*
X011459Y024430D02*
X019100Y024430D01*
X019100Y024528D02*
X011459Y024528D01*
X011459Y024627D02*
X019100Y024627D01*
X019100Y024725D02*
X011459Y024725D01*
X011459Y024922D02*
X019100Y024922D01*
X019100Y024824D02*
X010650Y024824D01*
X010650Y024922D02*
X010550Y024922D01*
X010550Y025021D02*
X010650Y025021D01*
X010650Y025119D02*
X010550Y025119D01*
X010550Y025218D02*
X010650Y025218D01*
X010650Y025316D02*
X010550Y025316D01*
X011446Y025316D02*
X019100Y025316D01*
X019100Y025218D02*
X011459Y025218D01*
X011459Y025119D02*
X019100Y025119D01*
X019100Y025021D02*
X011459Y025021D01*
D27*
X020200Y023484D02*
X020216Y023500D01*
X019900Y020000D02*
X019900Y019965D01*
X030600Y017100D02*
X030600Y016935D01*
X039100Y011100D02*
X039265Y011100D01*
X035100Y009100D02*
X035100Y007600D01*
X043900Y010600D02*
X043935Y010600D01*
X039265Y002100D02*
X039100Y002100D01*
X042100Y001765D02*
X042100Y001600D01*
X043900Y001600D02*
X043935Y001600D01*
D28*
X040900Y008000D03*
X041400Y011600D03*
X041000Y016800D03*
X022200Y020000D03*
X010300Y017700D03*
X009400Y013000D03*
X006200Y009900D03*
X009900Y009700D03*
X020400Y013000D03*
X021800Y013200D03*
D29*
X022600Y014600D03*
M02*
